<svg width="24" height="24" viewBox="0 0 24 24" fill="none" xmlns="http://www.w3.org/2000/svg">
<path fill-rule="evenodd" clip-rule="evenodd" d="M6.68906 23.2078C6.72187 23.2688 6.70313 23.3484 6.64219 23.3859C6.60469 23.3906 5.60625 24.0281 5.5875 23.9531C5.55938 23.9438 5.53125 23.925 5.5125 23.9016L3.67031 20.7141C3.6375 20.6531 3.65625 20.5734 3.71719 20.5359L4.67344 19.9828C4.73438 19.95 4.81406 19.9688 4.85156 20.0297L6.44062 22.7812C6.44531 22.7859 6.45 22.7953 6.45 22.8L6.68906 23.2078ZM16.1625 17.8922C15.2156 18.3094 14.6109 18.5766 14.0859 18.7313C13.1344 19.0688 11.1703 18.9 10.1391 18.9375V18.5531H12.4781C13.4484 18.5344 13.4531 17.0906 12.4781 17.0719H8.55C8.23125 17.0719 7.93594 17.1328 7.67344 17.2547C7.40625 17.3766 7.16719 17.5594 6.96094 17.7984L5.19375 19.8469L6.64688 22.3641C7.12031 21.8531 7.74844 20.925 8.40937 20.6719C9.07969 20.2781 11.2594 20.4891 12.0938 20.4422C12.8063 20.4422 14.4797 19.6406 15.6563 19.0781C16.1391 18.7734 16.9313 18.7406 16.7344 18.1078C16.6313 17.8922 16.3781 17.7938 16.1625 17.8922ZM4.10156 14.1328V14.7094C4.10156 15.0281 4.35938 15.2859 4.67813 15.2859H19.7719C20.0906 15.2859 20.3484 15.0281 20.3484 14.7094V14.1328H4.10156ZM12.225 6.96094C8.44219 6.96094 5.35313 9.975 5.25 13.7484H19.2047C19.0969 9.975 16.0078 6.96094 12.225 6.96094ZM12.225 6.57656C12.5016 6.57656 12.7781 6.59063 13.0453 6.62344C13.2516 5.27344 11.1938 5.27344 11.4047 6.62344C11.6719 6.59063 11.9484 6.57656 12.225 6.57656ZM12.5672 2.85938H16.9078C17.4469 2.84063 17.7328 3.55312 17.3438 3.91406C17.2313 4.02656 17.0766 4.09688 16.9078 4.09688H15.7453C15.1922 4.09688 14.7422 4.55156 14.7422 5.1C14.7422 5.20781 14.8266 5.29219 14.9344 5.29219C15.0422 5.29219 15.1266 5.20781 15.1266 5.1C15.1266 4.93594 15.1922 4.78125 15.3 4.67344C15.4125 4.55625 15.5719 4.48125 15.7453 4.48594H16.9078C17.7797 4.51406 18.2484 3.35625 17.6156 2.775C17.4328 2.59219 17.1844 2.47969 16.9078 2.47969H12.5672C12.0281 2.49844 11.7422 1.78594 12.1312 1.425C12.2438 1.3125 12.3984 1.24219 12.5672 1.24219H14.1422C14.4188 1.24219 14.6672 1.12969 14.85 0.946875C15.0328 0.7875 15.3703 0.107812 14.9531 0.046875C14.8453 0.046875 14.7609 0.13125 14.7609 0.239062C14.7609 0.58125 14.4844 0.857812 14.1422 0.857812H12.5672C11.6859 0.829687 11.2219 2.00156 11.8688 2.58281C12.0516 2.75156 12.2953 2.85938 12.5672 2.85938Z" fill="#717375"/>
</svg>
