<svg width="25" height="24" viewBox="0 0 25 24" fill="none" xmlns="http://www.w3.org/2000/svg">
<g clip-path="url(#clip0_7585_4363)">
<path d="M9.42861 19.6919L8.24091 19.082L8.58702 21.5679C8.70511 21.6139 8.83072 21.6375 8.95745 21.6376C9.33117 21.6376 9.69172 21.4334 9.87418 21.0781C10.134 20.5723 9.93445 19.9517 9.42861 19.6919Z" fill="#717375"/>
<path d="M9.72649 7.37591L10.2208 7.2652L13.2085 5.46462C13.4235 5.33542 13.668 5.26351 13.9187 5.25577C13.7618 5.08862 13.6296 4.89993 13.526 4.69539L11.9251 5.81812H8.95829C8.89536 5.81814 8.8326 5.8247 8.77103 5.83769C8.75856 5.83708 8.74623 5.83609 8.73367 5.83609C8.68606 5.83609 8.63783 5.84042 8.58941 5.84945L6.30699 6.27408L4.6829 4.40707L6.26483 1.32036C6.49322 0.874744 6.31706 0.328392 5.87149 0.100008C5.42587 -0.128423 4.87952 0.0477349 4.65114 0.493304L2.78949 4.12594C2.7069 4.28709 2.67446 4.46927 2.69635 4.64902C2.71823 4.82877 2.79344 4.99785 2.91229 5.13447L5.03389 7.57339L6.21566 13.9251L3.56422 17.6748C3.2025 18.1863 3.37832 18.8996 3.93456 19.1852L5.05789 19.762L4.83812 18.1836C4.84122 18.1375 4.65627 17.5189 5.15646 16.9737L7.78438 14.4362L5.61615 17.351C5.45764 17.567 5.38963 17.8363 5.42658 18.1017L6.12429 23.1127C6.20225 23.6729 6.71953 24.0688 7.28555 23.9901C7.84851 23.9117 8.24129 23.3918 8.1629 22.8288L7.52282 18.2316L10.4877 14.2072C10.6693 13.9607 10.796 13.6782 10.8594 13.3787C10.9228 13.0791 10.9213 12.7695 10.855 12.4706L9.72649 7.37591ZM13.0519 21.0778C13.2344 21.4331 13.5949 21.6373 13.9686 21.6373C14.0953 21.6372 14.221 21.6135 14.339 21.5675L14.6852 19.0817L13.4975 19.6916C12.9917 19.9513 12.7922 20.572 13.0519 21.0778ZM15.6774 5.45399C15.834 5.45399 15.9932 5.43395 16.1518 5.39193C17.1386 5.13057 17.7266 4.11879 17.4652 3.13204C17.2459 2.30386 16.4979 1.75657 15.6798 1.75657C15.5232 1.75657 15.3639 1.77661 15.2054 1.81863C14.2186 2.07999 13.6306 3.09177 13.892 4.07851C14.1113 4.9067 14.8592 5.45399 15.6774 5.45399Z" fill="#717375"/>
<path d="M21.6023 2.11599C21.1228 2.00773 20.6465 2.31521 20.5213 2.79056L19.643 6.12358L17.3406 6.40964C17.3358 6.40851 14.2874 5.81812 13.9652 5.81812C13.8065 5.81812 13.6458 5.85962 13.4999 5.94756L10.3821 7.80695L10.7794 9.57615L10.9737 9.53263C11.0689 9.51132 11.1599 9.47479 11.2434 9.42446L12.9967 8.36789L12.0693 12.4819C12.0029 12.7764 12.0006 13.0818 12.0626 13.3773C12.1245 13.6727 12.2493 13.9515 12.4284 14.1945L15.4034 18.231L14.7666 22.8044C14.6892 23.3603 15.0586 23.893 15.6123 23.9851C15.6701 23.9947 15.7274 23.9994 15.7839 23.9994C16.2893 23.9994 16.7302 23.6269 16.8019 23.112L17.4996 18.101C17.5366 17.8356 17.4686 17.5663 17.3101 17.3503L14.9849 14.1791L17.7697 16.973C18.0474 17.2606 18.1606 17.6465 18.1116 18.0142L18.0881 18.1829L17.8683 19.7613L18.9916 19.1845C19.1228 19.1172 19.238 19.0225 19.3294 18.9068C19.4208 18.7911 19.4862 18.6571 19.5213 18.5138C19.5564 18.3706 19.5604 18.2215 19.5329 18.0767C19.5054 17.9318 19.4471 17.7946 19.3619 17.6742L16.691 13.6034L17.76 8.18477L20.4752 7.84737C20.6549 7.82504 20.8238 7.74941 20.9602 7.63023C21.0965 7.51105 21.194 7.35378 21.2401 7.17869L22.2802 3.23156C22.4105 2.73673 22.1057 2.22962 21.6023 2.11599ZM7.6557 5.44821C8.52274 5.50975 9.33997 4.95075 9.57117 4.07782C9.83254 3.09107 9.2445 2.07929 8.25775 1.81793C7.27101 1.55656 6.25923 2.1446 5.99787 3.13135C5.70046 4.2543 6.49947 5.36616 7.6557 5.44821Z" fill="#717375"/>
</g>
<defs>
<clipPath id="clip0_7585_4363">
<rect width="24" height="24" fill="white" transform="translate(0.5)"/>
</clipPath>
</defs>
</svg>
