<svg width="24" height="24" viewBox="0 0 24 24" fill="none" xmlns="http://www.w3.org/2000/svg">
<g clip-path="url(#clip0_7585_4377)">
<path d="M21.1304 5.73952H18.6261L17.2435 3.65256C16.7218 2.86996 15.8087 2.40039 14.8696 2.40039H9.13045C8.19132 2.40039 7.27827 2.86996 6.75653 3.65256L5.37393 5.73952H2.86958C2.49243 5.73843 2.1188 5.81191 1.77015 5.95573C1.42151 6.09956 1.10474 6.31089 0.838059 6.57757C0.571378 6.84425 0.360049 7.16102 0.216225 7.50966C0.0724022 7.85831 -0.00107759 8.23194 1.19409e-05 8.60909V18.7308C-0.00107759 19.108 0.0724022 19.4816 0.216225 19.8302C0.360049 20.1789 0.571378 20.4957 0.838059 20.7623C1.10474 21.029 1.42151 21.2404 1.77015 21.3842C2.1188 21.528 2.49243 21.6015 2.86958 21.6004H21.1304C21.5076 21.6015 21.8812 21.528 22.2299 21.3842C22.5785 21.2404 22.8953 21.029 23.162 20.7623C23.4286 20.4957 23.64 20.1789 23.7838 19.8302C23.9276 19.4816 24.0011 19.108 24 18.7308V8.60909C24.0011 8.23194 23.9276 7.85831 23.7838 7.50966C23.64 7.16102 23.4286 6.84425 23.162 6.57757C22.8953 6.31089 22.5785 6.09956 22.2299 5.95573C21.8812 5.81191 21.5076 5.73843 21.1304 5.73952ZM12 19.2526C8.4261 19.2526 5.53045 16.3569 5.53045 12.783C5.53045 9.20909 8.4261 6.33952 12 6.33952C15.5739 6.33952 18.4696 9.23517 18.4696 12.8091C18.4696 16.3569 15.5739 19.2526 12 19.2526ZM20.7652 9.783H19.6174C19.1478 9.75691 18.7826 9.36561 18.8087 8.89604C18.8348 8.45256 19.1739 8.11343 19.6174 8.08735H20.6609C21.1304 8.06126 21.5218 8.42648 21.5478 8.89604C21.5739 9.36561 21.2348 9.75691 20.7652 9.783Z" fill="#717375"/>
<path d="M12 9.20898C10.0174 9.20898 8.40002 10.8264 8.40002 12.809C8.40002 14.7916 10.0174 16.3829 12 16.3829C13.9826 16.3829 15.6 14.7655 15.6 12.7829C15.6 10.8003 13.9826 9.20898 12 9.20898Z" fill="#717375"/>
</g>
<defs>
<clipPath id="clip0_7585_4377">
<rect width="24" height="24" fill="white"/>
</clipPath>
</defs>
</svg>
