<svg width="25" height="24" viewBox="0 0 25 24" fill="none" xmlns="http://www.w3.org/2000/svg">
<g clip-path="url(#clip0_7585_4370)">
<path d="M6.21425 9.14297C8.73901 9.14297 10.7857 7.09625 10.7857 4.57149C10.7857 2.04672 8.73901 0 6.21425 0C3.68949 0 1.64276 2.04672 1.64276 4.57149C1.64276 7.09625 3.68949 9.14297 6.21425 9.14297Z" fill="#717375"/>
<path d="M7.92861 24.0003V21.1432H1.11715C1.25224 21.9425 1.66619 22.6681 2.28551 23.1912C2.90483 23.7142 3.68945 24.0009 4.50009 24.0003H7.92861ZM1.07138 20.0002H7.73994L7.16856 18.0403H6.94572C6.51961 17.9552 6.11851 17.7741 5.77292 17.5108C5.42734 17.2474 5.14636 16.9087 4.95137 16.5204L3.40848 13.4232C3.33892 13.2958 3.32055 13.1466 3.35712 13.0061C3.46753 12.5445 3.71885 12.1288 4.07621 11.8164C4.43357 11.5041 4.87927 11.3108 5.35148 11.2632C5.48657 11.2546 5.62208 11.2546 5.75718 11.2632L5.22577 10.2059C4.47709 10.0807 3.76167 9.80461 3.12289 9.39453C1.80362 10.7283 1.06603 12.5301 1.07138 14.4061V20.0002ZM9.07138 24.0003H10.2142V22.8576C10.2142 21.2797 11.4934 20.0004 13.0713 20.0004H19.9285C21.5064 20.0004 22.7856 21.2797 22.7856 22.8576V24.0003H23.9284V18.8575H9.07138V24.0003Z" fill="#717375"/>
<path d="M19.3228 8.62304C18.9863 8.40096 18.5781 8.31462 18.1805 8.38141C17.7829 8.44819 17.4254 8.66314 17.1799 8.98297L14.7115 12.2174L11.1001 9.81177C11.0382 9.76229 10.9666 9.72624 10.89 9.70593C10.8133 9.68561 10.7333 9.68147 10.655 9.69377C10.5767 9.70607 10.5018 9.73454 10.4351 9.77736C10.3683 9.82019 10.3113 9.87644 10.2675 9.94252C10.2237 10.0086 10.1941 10.0831 10.1807 10.1612C10.1672 10.2394 10.1702 10.3194 10.1894 10.3964C10.2086 10.4733 10.2436 10.5454 10.2922 10.608C10.3408 10.6707 10.4019 10.7225 10.4716 10.7603L12.7287 12.2688C12.0517 12.2915 11.3962 12.512 10.8431 12.9031L8.26017 14.7488C8.19331 14.7964 8.11698 14.829 8.03639 14.8444C7.95579 14.8598 7.87283 14.8577 7.79312 14.8382C7.71342 14.8187 7.63886 14.7822 7.57451 14.7313C7.51015 14.6804 7.45752 14.6162 7.42018 14.5431L6.8488 13.4004L6.66593 13.0404C6.56399 12.8295 6.3997 12.655 6.1953 12.5405C5.9909 12.4261 5.75626 12.3772 5.52316 12.4005C5.31668 12.4197 5.11932 12.4947 4.95222 12.6175C4.78513 12.7403 4.65461 12.9063 4.57465 13.0976L6.0146 15.9547C6.13106 16.1879 6.29917 16.3914 6.50612 16.5499C6.71308 16.7083 6.95345 16.8175 7.20894 16.8691C7.4645 16.9212 7.7286 16.9143 7.98111 16.849C8.23363 16.7836 8.4679 16.6615 8.66608 16.4919L13.2376 12.5662L14.0318 13.0976L11.4714 16.446C11.295 16.6638 11.1841 16.9273 11.1516 17.2058C11.1191 17.4843 11.1664 17.7662 11.2879 18.0189C11.4095 18.2715 11.6003 18.4844 11.8381 18.6329C12.0759 18.7813 12.3511 18.8591 12.6314 18.8572C12.8525 18.8534 13.0699 18.8001 13.2676 18.7012C13.4654 18.6023 13.6385 18.4604 13.7742 18.2858L19.6827 10.9374C19.8168 10.766 19.9153 10.5695 19.9722 10.3595C20.0291 10.1494 20.0433 9.93008 20.0141 9.71444C19.9818 9.49423 19.9035 9.28326 19.7845 9.09523C19.6654 8.90721 19.5081 8.74633 19.3228 8.62304Z" fill="#717375"/>
</g>
<defs>
<clipPath id="clip0_7585_4370">
<rect width="24" height="24" fill="white" transform="translate(0.5)"/>
</clipPath>
</defs>
</svg>
